<?xml version="1.0" encoding="UTF-8" standalone="no"?>
<!-- Created with Inkscape (http://www.inkscape.org/) -->

<svg
   xmlns:dc="http://purl.org/dc/elements/1.1/"
   xmlns:cc="http://creativecommons.org/ns#"
   xmlns:rdf="http://www.w3.org/1999/02/22-rdf-syntax-ns#"
   xmlns:svg="http://www.w3.org/2000/svg"
   xmlns="http://www.w3.org/2000/svg"
   xmlns:sodipodi="http://sodipodi.sourceforge.net/DTD/sodipodi-0.dtd"
   xmlns:inkscape="http://www.inkscape.org/namespaces/inkscape"
   width="123.10821mm"
   height="88.803551mm"
   viewBox="0 0 123.10821 88.803551"
   version="1.1"
   id="svg8"
   inkscape:version="0.92.5 (2060ec1f9f, 2020-04-08)"
   sodipodi:docname="foej.svg">
  <defs
     id="defs2" />
  <sodipodi:namedview
     id="base"
     pagecolor="#ffffff"
     bordercolor="#666666"
     borderopacity="1.0"
     inkscape:pageopacity="0.0"
     inkscape:pageshadow="2"
     inkscape:zoom="0.98994949"
     inkscape:cx="258.3888"
     inkscape:cy="165.5625"
     inkscape:document-units="mm"
     inkscape:current-layer="layer1"
     showgrid="false"
     fit-margin-top="0"
     fit-margin-left="0"
     fit-margin-right="0"
     fit-margin-bottom="0"
     inkscape:window-width="1920"
     inkscape:window-height="1143"
     inkscape:window-x="1920"
     inkscape:window-y="0"
     inkscape:window-maximized="1" />
  <metadata
     id="metadata5">
    <rdf:RDF>
      <cc:Work
         rdf:about="">
        <dc:format>image/svg+xml</dc:format>
        <dc:type
           rdf:resource="http://purl.org/dc/dcmitype/StillImage" />
        <dc:title></dc:title>
      </cc:Work>
    </rdf:RDF>
  </metadata>
  <g
     inkscape:label="Layer 1"
     inkscape:groupmode="layer"
     id="layer1"
     transform="translate(-0.66655555,-0.30346906)">
    <path
       style="fill:#000000;stroke-width:0.1661244"
       d="m 52.041706,88.958133 c -1.048803,-0.17741 -1.764998,-0.57979 -2.154285,-1.21033 -0.561405,-0.90933 -0.547002,-1.14699 0.165388,-2.72911 0.56619,-1.25742 0.676023,-1.67592 0.676023,-2.57584 v -1.07448 l 0.976661,-0.84947 c 0.871769,-0.75825 1.007866,-0.96477 1.267278,-1.92312 0.281726,-1.04077 0.303387,-1.06879 0.707624,-0.9151 0.229355,0.0872 0.452714,0.12283 0.496357,0.0792 0.04364,-0.0436 -0.03541,-0.58772 -0.175653,-1.20905 l -0.25501,-1.1297 0.900173,-1.19914 c 0.759568,-1.01185 0.90018,-1.30924 0.90018,-1.90387 0,-0.44363 0.181919,-1.07642 0.491027,-1.70802 0.270073,-0.55183 0.531537,-1.1398 0.581045,-1.3066 0.06613,-0.22283 0.221218,-0.28952 0.584655,-0.25139 0.272051,0.0286 0.496496,-0.003 0.498763,-0.0705 0.03748,-1.11247 -0.02838,-1.78362 -0.175114,-1.78362 -0.09858,0 -0.603183,-0.36304 -1.121341,-0.80676 -0.518151,-0.44372 -1.390635,-1.10796 -1.938843,-1.4761 -1.183902,-0.79501 -2.992669,-2.63324 -3.725514,-3.78618 -0.577674,-0.90883 -0.960236,-2.05514 -1.605946,-4.81211 -0.333054,-1.42202 -0.457429,-2.5253 -0.560708,-4.97375 -0.119226,-2.82652 -0.100911,-3.26119 0.180199,-4.27561 0.172106,-0.62106 0.312925,-1.49454 0.312925,-1.94105 0,-0.96 0.304185,-1.8963 0.916856,-2.8221 l 0.444672,-0.671949 -0.278342,-0.88093 c -0.153094,-0.48451 -0.308367,-0.97642 -0.345053,-1.09313 -0.03667,-0.11672 0.172011,-0.35738 0.463771,-0.53481 0.428899,-0.26083 0.538607,-0.4441 0.572958,-0.95712 0.06021,-0.89954 0.446354,-1.90295 1.126659,-2.92788 0.322902,-0.48646 0.587092,-0.96595 0.587092,-1.06552 0,-0.0996 0.150312,-0.28633 0.334028,-0.415 0.32972,-0.23095 0.326512,-0.25046 -0.24919,-1.51375 -0.320767,-0.70388 -0.583211,-1.3102 -0.583211,-1.34739 0,-0.0372 0.485909,-0.0222 1.079807,0.0332 1.24372,0.11615 1.191462,0.21144 0.888866,-1.62085 -0.105018,-0.63591 -0.152228,-1.19492 -0.104905,-1.24224 0.04734,-0.0473 0.51218,0.0734 1.033025,0.26828 0.520844,0.19487 0.971079,0.32832 1.000519,0.29656 0.02945,-0.0318 -0.02957,-0.45873 -0.1312,-0.94881 l -0.184732,-0.89105 0.86257,-0.77019 c 0.831145,-0.74214 0.853874,-0.78532 0.623998,-1.1855 -0.329382,-0.57341 -0.309616,-0.66451 0.144203,-0.66451 1.029044,0 1.376195,-0.18583 1.737905,-0.93034 0.349172,-0.71871 1.525352,-1.65052 2.598265,-2.05844 0.23053,-0.0876 0.419142,-0.27705 0.419142,-0.42091 0,-0.14385 0.117444,-0.48865 0.260982,-0.76623 0.349103,-0.67509 1.340167,-1.09075 2.947989,-1.23639 l 1.29854,-0.11763 0.77183,-0.89401 c 0.872324,-1.01041 1.284364,-1.17979 4.773704,-1.96239 1.09023,-0.24451 2.03567,-0.4776 2.10099,-0.51797 0.0653,-0.0404 0.19087,0.0554 0.27901,0.21297 0.11669,0.20851 0.22108,0.23995 0.38398,0.11565 0.53739,-0.41006 1.59185,-0.57163 2.37087,-0.36327 0.62988,0.16847 0.97625,0.15848 2.01221,-0.058 l 1.25135,-0.26147 0.65724,0.4761 c 0.76562,0.55461 0.82623,0.56918 0.82623,0.19863 0,-0.15261 0.23256,-0.78201 0.5168,-1.39867 0.36307,-0.787695 0.62763,-1.149023 0.88939,-1.214717 0.32459,-0.08147 0.38579,-0.234799 0.475,-1.190168 0.0613,-0.656742 0.23767,-1.315517 0.4396,-1.642255 0.18546,-0.3000855 0.33721,-0.7362625 0.33721,-0.9692845 0,-0.303526 0.1619,-0.523752 0.57087,-0.776501 0.72941,-0.450806 0.98629,-1.196379 0.83351,-2.41919 l -0.11515,-0.921622 0.86202,-0.364184 0.86201,-0.364191 -0.0445,-1.332695 c -0.0535,-1.603936 0.0647,-2.00821699 0.68024,-2.32650399 1.73322,-0.896287 4.46746,-0.100359 6.70337,1.95132499 l 1.13254,1.039228 -0.34345,0.80124 c -0.21995,0.513116 -0.34345,1.159522 -0.34345,1.797578 v 0.996338 l -0.66858,0.262627 c -0.51425,0.201998 -0.73799,0.419418 -0.96925,0.941851 -0.16536,0.373571 -0.60643,1.032366 -0.98016,1.463984 -0.57178,0.6603395 -0.6962,0.9368855 -0.78475,1.7443035 -0.1425,1.299368 -0.3364,1.705123 -0.92014,1.925467 -0.41041,0.1549 -0.49473,0.27962 -0.49473,0.73175 0,0.49935 -0.0434,0.54501 -0.51774,0.54501 -0.4709,0 -0.5101,0.0399 -0.43332,0.44161 0.0602,0.31507 -0.0532,0.63163 -0.39594,1.10474 -0.56043,0.77364 -0.59227,0.94552 -0.17517,0.94552 0.51425,0 2.05519,1.23182 2.99647,2.39537 0.49107,0.60703 1.4629,1.61875 2.15962,2.24826 1.04974,0.94849 1.3495,1.33891 1.74979,2.27898 0.26568,0.62393 0.92598,1.67763 1.46735,2.34155 2.05228,2.51687 2.5143,3.71736 2.700182,7.01603 0.0753,1.33683 0.20844,2.1548 0.44334,2.72431 0.20792,0.50409 0.30808,1.04156 0.26314,1.41206 -0.0407,0.33536 0.0362,0.8292 0.17489,1.12398 0.23338,0.49593 0.22247,0.56842 -0.19191,1.27552 -0.34383,0.58669 -0.43936,0.96789 -0.43936,1.75313 0,0.784769 -0.17964,1.502299 -0.824402,3.292899 -0.45342,1.25922 -1.06035,3.1118 -1.34874,4.11686 -0.48277,1.68242 -0.59332,1.89984 -1.39383,2.74105 -0.47821,0.50253 -1.13695,1.3996 -1.46387,1.99349 -0.37535,0.68185 -0.9631,1.4023 -1.59479,1.95484 -0.5502,0.48126 -1.63137,1.7535 -2.4026,2.82719 -1.24542,1.73387 -1.5773,2.07628 -2.96786,3.062 -0.86109,0.61041 -2.29745,1.71465 -3.1919,2.45387 -1.65618,1.36877 -3.06017,2.19455 -4.05489,2.38494 -0.30463,0.0583 -0.7541,0.2486 -0.99881,0.42284 -0.24471,0.17426 -1.18312,0.62405 -2.08536,0.99955 l -1.64041,0.68272 0.10266,-0.749 c 0.12004,-0.87577 -0.0338,-0.9574 -0.40073,-0.2127 -0.15868,0.322 -0.54841,0.67629 -0.99674,0.9061 -0.40491,0.20754 -0.83786,0.46446 -0.96213,0.57091 -0.12427,0.10646 -0.89417,0.26816 -1.71091,0.35935 l -1.48496,0.1658 -0.4846,-0.46428 -0.4846,-0.46427 -0.17177,0.45179 c -0.0945,0.24849 -0.17177,0.5136 -0.17177,0.58913 0,0.0755 -0.42985,0.002 -0.95522,-0.16423 -0.85663,-0.27044 -0.97572,-0.27516 -1.15384,-0.0457 -0.16297,0.20996 -0.294135,0.22258 -0.730813,0.0704 -0.292708,-0.10204 -0.893311,-0.18552 -1.334667,-0.18552 -0.441356,0 -1.098418,-0.11842 -1.460135,-0.26315 -0.704309,-0.2818 -0.817181,-0.25083 -1.637571,0.44937 -0.602135,0.51392 -1.74667,3.075 -2.007005,4.49097 -0.103046,0.56048 -0.500834,1.53211 -0.986166,2.40881 -0.447397,0.80818 -1.319674,2.55337 -1.938391,3.87821 -1.169198,2.50356 -4.399792,8.48695 -4.563906,8.45281 -0.05167,-0.0107 -0.43757,-0.0777 -0.857597,-0.14872 z m 13.721383,-25.08265 c -0.139004,-0.39398 -0.229619,-0.73943 -0.201377,-0.76768 0.02825,-0.0283 0.546531,0.0257 1.151743,0.11996 0.728163,0.11336 1.916273,0.11938 3.512323,0.0178 2.34394,-0.14919 2.43648,-0.1694 3.28301,-0.71701 0.4791,-0.30993 2.20542,-1.05249 3.83628,-1.65015 2.54328,-0.93204 3.00826,-1.15659 3.26797,-1.57818 0.21069,-0.34202 0.60916,-0.60777 1.30996,-0.87368 0.55395,-0.21018 1.09712,-0.49052 1.20704,-0.62297 0.10993,-0.13245 0.28837,-0.24082 0.39654,-0.24082 0.10817,0 0.64099,-0.50113 1.18406,-1.11363 1.31829,-1.48685 1.86455,-1.99308 2.60349,-2.41266 0.5154,-0.29266 0.69375,-0.54905 1.06264,-1.52753 0.2438,-0.64671 0.46766,-1.20495 0.49745,-1.24053 0.0298,-0.0356 0.32277,0.14016 0.65105,0.39055 0.32828,0.25039 0.63766,0.41446 0.68751,0.36461 0.0499,-0.0499 0.14071,-0.73437 0.20188,-1.52113 0.0757,-0.97397 0.18912,-1.48273 0.35528,-1.59419 0.24544,-0.16464 1.12139,-0.11527 1.73918,0.098 0.23625,0.0816 0.1755,-0.0337 -0.21028,-0.39895 -0.54218,-0.51333 -0.54227,-0.51365 -0.12815,-0.51365 0.37373,0 0.39706,-0.038 0.23787,-0.38736 -0.23412,-0.51386 0.0565,-1.59573 0.6033,-2.24552 0.2571,-0.30555 0.41094,-0.69544 0.41094,-1.04149 0,-0.30421 0.50231,-2.06605 1.11623,-3.915189 l 1.11621,-3.36209 -0.30973,-1.12762 c -0.17035,-0.62019 -0.47215,-1.73898 -0.67066,-2.4862 -0.19851,-0.74723 -0.44222,-1.45741 -0.54157,-1.57819 -0.0994,-0.12077 -0.23481,-1.06219 -0.30103,-2.09204 -0.0662,-1.02984 -0.17172,-1.90415 -0.23444,-1.94292 -0.0627,-0.0387 -0.24412,0.14972 -0.4031,0.41885 -0.15899,0.26914 -0.35283,0.48935 -0.43078,0.48935 -0.0779,0 -0.82715,-0.85859 -1.66491,-1.90798 -1.05227,-1.31808 -1.98251,-2.27029 -3.00886,-3.0799 -0.81711,-0.64455 -1.5921,-1.21277 -1.72219,-1.26269 -0.16615,-0.0638 -0.44328,0.32135 -0.93125,1.29406 -0.8922,1.77852 -2.03637,3.78555 -2.85163,5.00218 -0.35358,0.52765 -0.83209,1.4621 -1.06335,2.07655 -0.48373,1.28531 -2.13973,4.32004 -2.55862,4.68887 -0.15565,0.13706 -0.41801,0.62297 -0.58302,1.07981 -0.77236,2.13836 -2.13183,5.01401 -2.63226,5.567909 -0.4572,0.50608 -0.56901,0.78787 -0.66399,1.67343 -0.20657,1.92611 -0.26688,2.10183 -0.86105,2.50843 -0.37122,0.25405 -0.70576,0.71774 -0.98944,1.37145 -0.23573,0.54319 -0.57391,1.08941 -0.75153,1.21382 -0.17762,0.12441 -0.32295,0.40085 -0.32295,0.61431 0,0.45581 -0.27479,0.58979 -1.20968,0.58979 -0.7791,0 -0.68009,0.19255 0.25215,0.49043 0.84804,0.27096 0.8801,0.40312 0.2087,0.86033 -0.4746,0.32321 -0.57809,0.49774 -0.57903,0.97646 -6.3e-4,0.42594 -0.23917,0.9404 -0.88509,1.91043 -0.48617,0.73014 -1.02815,1.68657 -1.2044,2.12541 -0.17676,0.4401 -0.5565,0.97935 -0.84686,1.20257 -0.28953,0.22257 -0.616512,0.68584 -0.726621,1.02947 -0.11011,0.34364 -0.535079,1.22285 -0.94437,1.9538 -0.409291,0.73095 -0.839577,1.62802 -0.956186,1.99349 -0.116614,0.36548 -0.262557,0.78535 -0.324314,0.93304 -0.07943,0.18993 0.04722,0.36952 0.432509,0.61349 0.299646,0.18972 0.566253,0.32349 0.592472,0.29728 0.02618,-0.0263 -0.06606,-0.37002 -0.205069,-0.764 z m 12.833119,-1.25929 c 0.47968,-0.21102 0.87215,-0.46254 0.87215,-0.55894 0,-0.19884 -1.806,-0.24039 -2.09196,-0.0482 -0.0999,0.0671 -0.22975,0.36975 -0.28868,0.6725 -0.12308,0.63237 -0.0728,0.63018 1.50849,-0.0654 z m -18.233092,-1.72434 c 0.121343,-0.85848 0.250508,-1.13979 0.794076,-1.7295 0.454918,-0.49352 0.683162,-0.91689 0.762789,-1.41484 0.06247,-0.39083 0.298647,-1.07571 0.524781,-1.52196 0.226134,-0.44625 0.411156,-1.05935 0.411156,-1.36244 0,-0.43335 0.226919,-0.82401 1.062233,-1.82872 0.797033,-0.95866 1.113417,-1.49098 1.267221,-2.13211 0.132832,-0.5537 0.453191,-1.1592 0.9101,-1.72016 0.634282,-0.77873 0.71217,-0.97285 0.775353,-1.93229 0.09215,-1.39937 0.788923,-2.97703 1.314823,-2.97703 0.34895,0 0.35971,-0.0456 0.25408,-1.07652 l -0.11029,-1.07651 0.47865,0.0957 c 0.45508,0.091 0.48314,0.0623 0.56977,-0.583609 0.0543,-0.40513 0.39905,-1.16064 0.85398,-1.87171 0.49494,-0.7736 0.83427,-1.53806 0.96617,-2.17664 0.17987,-0.87085 0.28489,-1.04287 0.91141,-1.4928 0.38946,-0.2797 0.74332,-0.62763 0.78636,-0.77319 0.043,-0.14556 0.19636,-0.78795 0.34075,-1.42752 0.19286,-0.85432 0.56927,-1.67682 1.41858,-3.09981 1.03792,-1.73899 1.17415,-2.07001 1.33313,-3.23942 0.2796,-2.0566 0.25945,-2.01262 1.1097,-2.42188 0.75774,-0.36473 0.78917,-0.40979 1.07334,-1.53861 0.34014,-1.35113 0.35265,-1.46399 0.14827,-1.33769 -0.0836,0.0517 -0.37475,-0.0934 -0.64694,-0.32244 -0.27219,-0.22903 -0.58918,-0.41642 -0.70442,-0.41642 -0.11524,0 -0.47074,-0.19924 -0.79001,-0.44276 l -0.58048,-0.44275 0.10725,0.42732 c 0.059,0.23502 0.15284,0.54611 0.20855,0.69129 0.0837,0.21817 0.0118,0.24607 -0.4146,0.16079 -0.45152,-0.0903 -0.5159,-0.0578 -0.5159,0.26076 0,0.20016 0.0828,0.51866 0.18401,0.70776 0.16881,0.31542 0.14822,0.33484 -0.2493,0.23508 -0.23832,-0.0598 -0.75134,-0.15235 -1.14004,-0.20563 l -0.70672,-0.0969 -0.73574,1.80283 c -0.40465,0.99156 -0.83724,2.05084 -0.96132,2.35396 l -0.22559,0.55113 -1.22997,-0.67505 c -1.0768,-0.59099 -1.28776,-0.65307 -1.69413,-0.49857 -0.25528,0.0971 -0.69754,0.13269 -0.982785,0.0792 -0.354534,-0.0665 -0.584228,-0.0183 -0.725976,0.15255 -0.114047,0.13741 -0.54704,0.41919 -0.962208,0.62617 -0.514126,0.25632 -0.826743,0.54813 -0.980245,0.91502 -0.123967,0.29628 -0.512601,0.72876 -0.863632,0.96106 -0.521931,0.3454 -0.692781,0.60248 -0.937494,1.41073 -0.279302,0.92246 -0.36711,1.0309 -1.317099,1.62654 -0.983674,0.61677 -1.042148,0.69354 -1.74176,2.28676 -0.398153,0.90672 -0.927612,1.9476 -1.176569,2.31307 -0.807908,1.186 -1.125686,1.97037 -2.072812,5.11628 -0.879052,2.919789 -0.925998,3.164559 -0.825821,4.305729 0.09495,1.08153 0.06065,1.30693 -0.323197,2.12364 -0.236174,0.50252 -0.430142,1.07747 -0.431034,1.27765 -6.28e-4,0.20019 -0.08589,0.41606 -0.188889,0.47972 -0.182691,0.11291 -0.137095,1.78781 0.129656,4.76301 0.09144,1.01978 0.07227,1.12235 -0.211643,1.13258 -0.271316,0.01 -0.263191,0.0349 0.0621,0.19173 0.348356,0.16799 0.454548,0.41259 0.800173,1.84308 0.06925,0.28663 0.350158,0.61756 0.725104,0.85426 0.426846,0.26945 0.670454,0.58127 0.805025,1.03043 0.302672,1.01023 0.585698,1.26858 1.890717,1.72588 0.670485,0.23494 1.242313,0.41183 1.270731,0.39306 0.02844,-0.0188 0.116884,-0.49546 0.196586,-1.05934 z m 25.956592,25.57356 c -0.29765,-0.4552 -0.66612,-0.82763 -0.81883,-0.82763 -0.15271,0 -0.7829,-0.16273 -1.40042,-0.36161 l -1.12277,-0.36161 -1.54701,0.46659 c -0.85086,0.25663 -1.6151,0.47542 -1.69833,0.48621 -0.0832,0.0108 -0.26004,-0.41255 -0.39293,-0.94073 -0.18862,-0.74969 -0.30119,-0.94321 -0.51318,-0.88231 -0.14936,0.0429 -0.75785,0.12672 -1.35219,0.18623 l -1.08063,0.10822 -0.61,-0.67949 c -0.58902,-0.65614 -0.64527,-0.67949 -1.63666,-0.67949 -0.91152,0 -1.01358,-0.0326 -0.9099,-0.29072 0.25733,-0.64066 0.25668,-0.7717 -0.002,-0.42583 -0.27158,0.36296 -0.27225,0.36299 -0.79844,0.0421 -0.28963,-0.17661 -0.75088,-0.32167 -1.02499,-0.32235 -1.15395,-0.003 -2.24096,-1.19486 -2.24206,-2.45859 -0.001,-1.41583 0.69932,-2.09767 2.35235,-2.28951 1.03453,-0.12006 2.35373,0.18125 4.39196,1.00312 0.76852,0.3099 1.84574,0.59811 2.49511,0.66758 0.62851,0.0672 1.69668,0.26387 2.37372,0.43696 0.67703,0.17308 1.56822,0.3147 1.9804,0.3147 0.4518,0 0.86532,0.10487 1.04122,0.26405 0.24791,0.22436 0.4565,0.2384 1.38772,0.0934 0.9467,-0.14739 1.22483,-0.12629 2.04223,0.15494 0.52046,0.17906 1.05477,0.28394 1.18737,0.23305 0.14036,-0.0539 0.52236,0.17019 0.91428,0.53622 0.37025,0.34581 0.53939,0.46796 0.37587,0.27145 -0.16353,-0.19651 -0.23639,-0.39237 -0.16191,-0.43525 0.56197,-0.32358 5.24052,-0.78972 7.89747,-0.78685 1.07367,10e-4 1.12708,-0.0181 1.37479,-0.49716 0.22656,-0.43813 0.34527,-0.49838 0.98191,-0.49838 0.589152,0 0.774932,-0.0774 0.996312,-0.41531 0.19254,-0.29384 0.42141,-0.41531 0.78255,-0.41531 0.54985,0 1.0708,-0.31615 2.41979,-1.46851 0.65492,-0.55945 0.88578,-0.88053 0.96337,-1.33981 0.12889,-0.76289 0.20277,-0.86678 0.93073,-1.30879 0.49946,-0.30328 0.62797,-0.50548 0.79469,-1.25047 0.41269,-1.84408 0.51344,-2.08388 0.8985,-2.13863 0.28759,-0.0409 0.36899,-0.16241 0.36899,-0.55082 0,-0.42966 0.0683,-0.50614 0.49495,-0.55462 l 0.49495,-0.0563 -0.56344,-0.45985 -0.56344,-0.45986 0.52043,-0.64759 c 0.34894,-0.43422 0.49073,-0.76114 0.43032,-0.99217 -0.0614,-0.23485 0.10635,-0.60195 0.52683,-1.15281 0.79031,-1.03536 1.06378,-2.08891 1.06623,-4.10767 10e-4,-0.89085 0.0446,-1.61972 0.0966,-1.61972 0.0521,0 0.42584,0.22786 0.83062,0.50636 0.40478,0.2785 0.73596,0.44089 0.73596,0.36089 0,-0.08 -0.19158,-0.61695 -0.42573,-1.19319 -0.33463,-0.82354 -0.41789,-1.28948 -0.38909,-2.17741 0.0269,-0.82857 -0.0382,-1.24381 -0.24395,-1.5579 l -0.28058,-0.42822 0.89654,0.10537 c 0.59003,0.0693 0.93593,0.0416 1.01174,-0.081 0.0746,-0.12067 -0.0493,-0.18727 -0.35147,-0.18891 -0.87834,-0.005 -0.96205,-0.18114 -0.60117,-1.26647 0.22835,-0.68676 0.28708,-1.14499 0.19931,-1.55511 -0.15479,-0.72323 0.44134,-7.41848 0.75994,-8.53525 0.20152,-0.70633 0.19709,-1.00043 -0.0345,-2.289119 -0.24157,-1.34447 -0.24205,-1.5282 -0.005,-2.02474 0.23762,-0.49829 0.23678,-0.58503 -0.01,-0.99109 -0.24944,-0.4111 -0.2491,-0.54611 0.004,-1.77262 l 0.27452,-1.32762 -0.48471,-1.78796 c -0.40433,-1.49147 -0.48487,-2.10733 -0.48568,-3.71391 -6.3e-4,-1.49139 -0.076,-2.14385 -0.33323,-2.89166 -0.41295,-1.20026 -0.41754,-1.11907 0.0978,-1.73155 0.46673,-0.55468 0.3586,-0.61883 -0.5863,-0.34784 -0.31313,0.0898 -0.59153,0.14108 -0.61867,0.11394 -0.12956,-0.12955 1.09351,-6.59408 1.34974,-7.13403 0.57761,-1.21723 1.81219,-1.9447 3.30397,-1.94686 1.01622,-0.001 1.73293,0.43808 2.27388,1.39453 0.29376,0.51941 0.73882,1.00703 1.15022,1.26022 0.36908,0.22715 0.67105,0.46069 0.67105,0.51898 0,0.0583 -0.19096,0.44765 -0.42435,0.86523 -0.39331,0.70372 -0.40655,0.79367 -0.18105,1.22975 0.22493,0.43497 0.21314,0.52034 -0.15623,1.13057 -0.21974,0.36305 -0.39992,0.72272 -0.40039,0.79928 -4.9e-4,0.0765 0.28854,0.0903 0.64224,0.0306 l 0.64309,-0.10866 0.11949,1.46458 c 0.0657,0.80551 0.11381,1.83835 0.1069,2.29519 -0.007,0.45684 -0.0323,2.55001 -0.0566,4.65149 l -0.0439,3.82086 0.47504,0.72088 0.47503,0.72088 -0.4978,0.52505 -0.49781,0.52505 0.0595,2.90718 c 0.0327,1.598939 0.0546,3.019309 0.0485,3.156359 -0.006,0.13705 -6.3e-4,0.74902 0.0115,1.35993 l 0.0225,1.11074 -0.92038,0.29013 c -0.50622,0.15957 -0.92039,0.34619 -0.92039,0.41471 0,0.19145 0.58465,0.33332 0.89028,0.21604 0.19808,-0.076 0.27259,-0.0115 0.27259,0.236 0,0.18733 0.1682,0.459 0.37377,0.6037 l 0.37379,0.26311 -0.41531,-0.046 -0.41531,-0.046 0.0335,1.44216 0.0335,1.44217 -0.50662,0.11127 -0.50661,0.11127 0.49994,0.52312 0.49994,0.52312 -0.39916,0.57471 c -0.61907,0.89132 -0.7548,1.48355 -0.59979,2.61702 0.13486,0.9861 0.12307,1.03571 -0.42575,1.79198 -0.31044,0.42779 -0.53838,0.80387 -0.50652,0.83573 0.0318,0.0318 1.58871,-0.1919 3.45966,-0.49726 1.87096,-0.30535 3.41731,-0.54067 3.43635,-0.52294 0.019,0.0177 -1.37605,0.73445 -3.10021,1.59272 -3.55464,1.76944 -3.3302,1.51049 -3.3302,3.84227 v 1.30505 l -0.78212,0.39749 -0.78212,0.39748 0.71936,0.367 0.71936,0.36699 -0.60174,0.61623 c -0.54619,0.55935 -0.60173,0.70189 -0.60173,1.54411 0,0.62211 -0.0821,0.99602 -0.24919,1.13468 -0.1431,0.11876 -0.24918,0.48103 -0.24918,0.85096 0,0.63063 -0.0127,0.64416 -0.60719,0.64416 -0.57771,0 -0.59383,0.0147 -0.33225,0.30379 0.35576,0.39311 0.35101,0.43249 -0.13904,1.15368 l -0.41398,0.60922 0.69946,0.71269 0.69945,0.71269 -1.47692,-0.49923 c -0.81229,-0.27457 -1.50575,-0.47038 -1.541,-0.43513 -0.0352,0.0353 0.17551,0.45348 0.46835,0.92941 0.57446,0.93362 0.58446,0.89695 -0.38866,1.42389 -0.25126,0.13605 -0.45683,0.31379 -0.45683,0.39497 0,0.0812 -0.48545,1.00531 -1.07877,2.05365 l -1.07877,1.90605 -1.95744,1.41495 c -1.07659,0.77822 -2.61015,1.71651 -3.40792,2.08508 -0.79777,0.36857 -1.49526,0.78681 -1.54999,0.92943 -0.0571,0.14865 -0.29592,0.25931 -0.55977,0.25931 -0.25314,0 -0.55331,0.11213 -0.66706,0.24918 -0.11374,0.13705 -0.39735,0.24919 -0.63023,0.24919 -0.23288,0 -0.56166,0.12511 -0.73064,0.27803 -0.2709,0.24516 -0.488462,0.25806 -1.840452,0.10913 l -1.53323,-0.16889 -1.54987,0.64766 -1.54989,0.64766 -1.27423,-0.42341 c -1.11253,-0.36968 -1.44672,-0.41 -2.63348,-0.31774 -1.3321,0.10357 -1.37344,0.12014 -2.06962,0.82949 -0.39069,0.3981 -0.78824,0.72246 -0.88342,0.72082 -0.0952,-0.002 -0.4166,-0.37542 -0.71425,-0.83062 z M 10.138557,70.345673 c -1.0167234,-0.58712 -1.2534744,-0.65584 -2.2593524,-0.65584 h -1.123618 l 0.215588,-1.2044 c 0.118573,-0.66242 0.219521,-1.61627 0.224327,-2.11966 0.0071,-0.74194 0.07429,-0.95618 0.354889,-1.13143 0.206431,-0.12891 0.307253,-0.31754 0.249783,-0.4673 -0.117449,-0.30607 0.162006,-0.85933 0.632859,-1.25293 l 0.34939,-0.29208 -0.475331,-0.006 c -0.453084,-0.005 -0.470198,-0.0329 -0.365675,-0.59003 0.09911,-0.52833 0.06107,-0.61217 -0.395772,-0.87216 -0.277986,-0.15819 -0.503559,-0.32501 -0.501274,-0.3707 0.0023,-0.0457 0.394281,-0.33074 0.871103,-0.63346 0.876987,-0.55678 0.836488,-0.57851 -0.480202,-0.25766 -0.417868,0.10183 -0.429174,0.0854 -0.314186,-0.45684 0.181454,-0.85565 0.740586,-2.08276 1.095263,-2.40373 0.438542,-0.39688 0.396467,-0.56753 -0.139955,-0.56763 l -0.456842,-8e-5 0.0097,-1.61963 c 0.0053,-0.89079 0.08714,-1.80652 0.181831,-2.03494 0.111609,-0.26924 0.123884,-0.94462 0.0349,-1.92033 -0.110552,-1.21219 -0.07662,-1.81811 0.174418,-3.11431 0.245937,-1.26987 0.275087,-1.75832 0.138205,-2.31584 -0.09541,-0.3886 -0.194643,-0.73269 -0.220524,-0.76464 -0.02588,-0.032 -0.330142,0.0354 -0.676139,0.14953 -0.601963,0.19867 -0.687139,0.17664 -1.975657,-0.51078 l -1.346574,-0.7184 -0.379915,0.37992 c -0.301966,0.30196 -0.498982,0.36059 -0.960221,0.28574 -1.376109,-0.22331 -1.94471697,-1.08629 -1.93283797,-2.933469 0.01892,-2.942 1.43267697,-3.97867 5.12146697,-3.75541 1.007256,0.061 2.11171,0.15548 2.454341,0.21004 0.576261,0.0918 0.622967,0.0689 0.622967,-0.30468 0,-0.22215 0.261084,-1.17917 0.580187,-2.12672 0.319104,-0.94756 0.550805,-1.75221 0.514892,-1.78812 -0.03591,-0.0359 -0.439058,0.1241 -0.895878,0.35559 l -0.830583,0.42089 0.06467,-0.61737 c 0.03556,-0.33956 0.140881,-1.62949 0.234034,-2.86651 0.167019,-2.21792 0.163447,-2.26401 -0.257527,-3.32248 -0.234792,-0.59035 -0.480341,-1.37174 -0.545662,-1.73642 -0.07516,-0.41963 -0.219253,-0.68242 -0.392471,-0.71578 -0.150537,-0.029 -0.811349,0.3048 -1.468468,0.74176 l -1.194763,0.79446 -0.403395,-0.494 c -0.221866,-0.27171 -0.518698,-0.68324 -0.659625,-0.91453 -0.140927,-0.23128 -0.469381,-0.54284 -0.729897,-0.69236 -0.58345,-0.33485 -1.191863,-1.48469 -1.206712,-2.28057 -0.0061,-0.32644 0.07694,-0.99621 0.184514,-1.48836 0.107574,-0.49216 0.195588,-1.21119 0.195588,-1.59786 v -0.70304 l 1.204402,-0.0849 c 0.892492,-0.0629 1.498187,-0.22481 2.338817,-0.62506 1.13209,-0.53902 1.138219,-0.5399 2.990239,-0.42856 1.020703,0.0614 3.0154534,0.0366 4.4327784,-0.0549 2.000175,-0.12926 2.911142,-0.1169 4.070047,0.0552 1.730655,0.257 3.651567,0.13168 4.627318,-0.30188 0.802102,-0.3564 1.044305,-0.26586 1.396395,0.522 l 0.279445,0.6253 0.05406,-0.51621 0.05406,-0.51621 2.246489,-0.37106 c 1.23557,-0.20409 2.290671,-0.32689 2.344671,-0.27288 0.054,0.054 0.03676,0.0982 -0.03831,0.0982 -0.07507,0 -0.01517,0.13406 0.13311,0.29791 0.241889,0.26729 0.410771,0.28148 1.642562,0.13801 1.018487,-0.11861 1.866931,-0.0991 3.286283,0.0757 1.052332,0.12961 3.034669,0.25032 4.405195,0.26826 1.370527,0.0179 2.940402,0.0404 3.488613,0.05 0.54821,0.01 1.605422,-0.005 2.349361,-0.0325 1.160731,-0.0428 1.40554,-0.003 1.725702,0.28238 1.211632,1.07901 1.030523,3.58082 -0.29581,4.08628 -0.929696,0.3543 -1.370449,0.37831 -1.370449,0.0746 0,-0.21676 -0.162321,-0.14395 -0.694401,0.31149 -0.779472,0.6672 -0.773362,0.66568 -1.639629,0.40615 -0.585502,-0.17543 -0.703826,-0.14598 -1.738186,0.43246 l -1.109916,0.6207 -1.128939,-0.52037 c -1.017093,-0.4688 -1.200653,-0.50382 -1.852764,-0.35346 -0.398101,0.0918 -1.177729,0.16873 -1.732505,0.17096 -0.554776,0.003 -1.3592,0.1235 -1.787606,0.26947 -0.766851,0.26129 -0.78396,0.25936 -1.103876,-0.12459 l -0.324952,-0.39001 -0.0055,0.45685 -0.0055,0.45684 -1.702775,0.002 c -0.936526,0.001 -1.98135,0.0479 -2.321831,0.10417 -0.565501,0.0935 -0.637001,0.061 -0.826506,-0.37561 l -0.207449,-0.47795 -0.05395,0.76959 -0.05395,0.76958 -0.94364,-0.28013 c -0.825912,-0.24518 -1.026258,-0.25166 -1.605861,-0.052 -0.588833,0.20288 -1.219546,0.23195 -3.663553,0.16892 -0.365474,-0.009 -1.276369,0.0841 -2.02421,0.20785 -1.87992,0.31106 -1.955632,0.47348 -1.15414,2.476 0.331882,0.82919 0.603422,1.5898 0.603422,1.69024 0,0.10043 -0.229499,0.47237 -0.509999,0.82653 -0.280499,0.35416 -0.464765,0.71711 -0.409483,0.80656 0.05528,0.0894 0.359538,0.21123 0.676123,0.27062 0.316585,0.0594 0.575608,0.16307 0.575608,0.23039 0,0.0673 -0.304405,0.25967 -0.676457,0.42745 l -0.676456,0.30503 0.412234,0.216 c 0.558905,0.29284 0.702035,1.21219 0.386383,2.48186 -0.133821,0.53828 -0.292018,1.63281 -0.351547,2.43229 l -0.108235,1.45359 h 0.924858 c 0.508672,0 1.364418,-0.12221 1.901654,-0.27158 1.131429,-0.31456 1.695425,-0.22265 2.291511,0.37344 0.386932,0.38693 0.462238,0.40362 0.940909,0.20864 0.286172,-0.11658 0.595069,-0.30802 0.686437,-0.42543 0.09137,-0.11741 0.764938,-0.33855 1.496823,-0.49142 1.29831,-0.27119 1.353345,-0.26948 2.261162,0.0702 0.828486,0.30998 1.055888,0.32887 2.074852,0.17241 0.629414,-0.0966 1.443412,-0.26714 1.808885,-0.37888 0.51948,-0.15882 0.791389,-0.15957 1.245933,-0.003 0.466005,0.1601 0.737551,0.15392 1.367789,-0.0311 0.685732,-0.2013 0.835299,-0.19877 1.168847,0.0198 0.467348,0.30622 4.273825,0.30155 4.274228,-0.005 1.42e-4,-0.10749 0.648643,-0.24397 1.594342,-0.33554 l 1.594105,-0.15434 0.336402,0.47244 0.336402,0.47243 0.194734,-0.38609 c 0.156965,-0.3112 0.306128,-0.37608 0.769015,-0.33449 0.315854,0.0284 1.228395,0.0897 2.027869,0.13638 0.799474,0.0467 1.453589,0.12953 1.453589,0.18421 0,0.35342 -1.257514,3.48741 -1.467102,3.65633 -0.141705,0.11421 -0.448936,0.20772 -0.682736,0.20778 -0.2338,7e-5 -0.899027,0.224339 -1.478285,0.498379 -0.579255,0.27404 -1.273378,0.49825 -1.542495,0.49825 -0.269116,0 -0.673707,0.12083 -0.899091,0.2685 -0.322306,0.21119 -0.632743,0.24463 -1.454127,0.15667 -0.85783,-0.0919 -1.310205,-0.0348 -2.533073,0.31971 -0.818806,0.23734 -1.899895,0.47366 -2.402421,0.52515 -0.898034,0.092 -0.919376,0.0841 -1.245933,-0.46361 l -0.332249,-0.55723 -0.05103,0.61401 -0.05103,0.61401 -0.862658,-0.11564 c -1.273944,-0.17077 -4.89412,0.0701 -6.741219,0.44858 -0.492155,0.10084 -1.149249,0.18334 -1.460207,0.18334 -0.310958,0 -0.868604,0.1547 -1.239215,0.34376 l -0.673835,0.34377 -0.64498,-0.42683 c -0.354739,-0.23475 -0.719207,-0.42682 -0.80993,-0.42682 -0.09072,0 -0.590256,0.18809 -1.110077,0.41798 -0.824834,0.36478 -1.051269,0.39869 -1.779036,0.26642 -0.529203,-0.0962 -0.965283,-0.0917 -1.193454,0.0122 -0.238705,0.10876 -0.568921,0.10601 -0.982494,-0.008 -0.593942,-0.164 -0.61882,-0.15503 -0.53438,0.19273 0.336767,1.38692 0.606003,3.35502 0.583952,4.26865 -0.01433,0.5939 0.02736,1.41622 0.09265,1.82737 0.09333,0.58774 0.02886,1.00753 -0.301521,1.96352 -0.397645,1.15061 -0.406534,1.25017 -0.165414,1.85279 0.237659,0.59397 0.232461,0.68065 -0.07722,1.28767 -0.240565,0.47154 -0.306795,0.83895 -0.240428,1.33376 0.09146,0.68191 0.09065,0.6831 -0.544941,0.80234 -0.602039,0.11294 -0.614652,0.12751 -0.232697,0.2688 0.835876,0.30922 0.824868,0.48695 -0.342605,5.53189 -0.444024,1.91874 -0.939677,4.14273 -1.10145,4.9422 -0.161774,0.79948 -0.370736,1.4497 -0.464361,1.44493 -0.09363,-0.005 -0.681306,-0.30379 -1.305959,-0.6645 z"
       id="path837"
       inkscape:connector-curvature="0" />
  </g>
</svg>
